<?xml version="1.0" encoding="UTF-8"?>
<svg width="172px" height="49px" viewBox="0 0 172 49" version="1.1" xmlns="http://www.w3.org/2000/svg" xmlns:xlink="http://www.w3.org/1999/xlink">
    <!-- Generator: Sketch 48.2 (47327) - http://www.bohemiancoding.com/sketch -->
    <title>logo</title>
    <desc>Created with Sketch.</desc>
    <defs></defs>
    <g id="Services-Desktop" stroke="none" stroke-width="1" fill="none" fill-rule="evenodd" transform="translate(-60.000000, -45.000000)">
        <g id="logo" transform="translate(60.000000, 45.000000)">
            <path d="M5.86666766,21.4524572 C5.86666766,21.4524572 5.88829641,21.0818191 5.90271557,20.9016622 C6.02141617,19.4224654 6.33683533,15.4933409 6.80983533,14.3873632 C8.00817066,11.585381 10.254985,9.35613256 13.3072126,7.94068759 C13.6380808,7.78737353 13.909985,7.54475532 14.0940868,7.23941772 L16.3195299,3.54516828 L18.8343862,7.61831509 L21.4213383,4.93015693 L19.4201647,1.68913896 C18.7628054,0.624457981 17.5963982,-0.00712368367 16.3002186,0.000103241792 C15.0037814,0.00733016725 13.8443263,0.651558951 13.1988114,1.72320875 L11.210512,5.02359075 C8.2602485,6.4607165 4.47367365,9.26940946 2.90378743,14.5427421 C2.40658383,16.2121619 2.17690719,20.6807248 2.18823653,22.7135556 L2.20111078,25.053789 L5.85585329,21.6351951 L5.86666766,21.4524572 Z" id="Fill-1" fill="#25EA9A"></path>
            <path d="M26.9903533,19.5706174 L10.2744251,37.7757588 C7.83192216,36.1360211 6.33284431,33.9183874 6.28186228,29.0864134 L23.0647365,10.9122445 C25.4696467,12.5491431 26.942976,14.7727132 26.9903533,19.5706174 Z M30.6533353,21.4080632 L30.6520479,21.1964175 L30.7622515,21.0763989 L30.702515,20.8373942 C30.6826886,20.757898 30.6659521,20.6799504 30.6487006,20.6020029 L30.6435509,19.6545013 C30.6095629,13.4029527 28.4026587,10.3619657 25.4876707,8.28809622 L32.8710539,0.292535618 L27.8830539,0.319894693 L21.3807844,7.30084658 L19.676491,9.05569895 L19.7246407,9.07944456 L2.81714371,27.2321908 L2.61862275,27.2332232 L2.61991018,27.4438365 L2.50893413,27.5628226 L2.56944311,27.8041503 C2.58901198,27.8826141 2.60600599,27.9654656 2.623,28.0485753 L2.6281497,28.9870432 C2.66265269,35.2917613 4.9071497,38.3311997 7.85895808,40.4061016 L0,48.9653624 L5.19012575,48.9367128 L30.4568743,21.4093537 L30.6533353,21.4080632 Z" id="Fill-3" fill="#25EA9A"></path>
            <path d="M27.4051359,27.1891132 C27.4051359,27.1891132 27.3837647,27.5597512 27.369088,27.7399081 C27.2506449,29.2188468 26.9357407,33.147197 26.4622257,34.2542071 C25.2638904,37.0561893 23.017076,39.2854377 19.9648485,40.7008827 C19.6339802,40.8541968 19.3618186,41.096815 19.1779743,41.4018945 L16.9522737,45.096402 L14.4376749,41.0232552 L11.8507228,43.7114134 L13.8518964,46.9524313 C14.5092557,48.0171123 15.6756629,48.648694 16.9718425,48.6414671 C18.2680222,48.6342401 19.4274772,47.9900114 20.0729922,46.9181034 L22.0612916,43.6179796 C25.0118126,42.1808538 28.7983874,39.3721609 30.3682737,34.0988282 C30.8652198,32.4296665 31.0948964,27.9608456 31.0838246,25.9280147 L31.0709503,23.5877813 L27.4159503,27.0063752 L27.4051359,27.1891132 Z" id="Fill-6" fill="#25EA9A"></path>
            <polygon id="Fill-8" fill="#171E28" points="48.5746024 11.9792226 45.236824 11.9792226 45.236824 34.7711388 57.5505305 34.7711388 57.5505305 31.6183925 48.5746024 31.6183925"></polygon>
            <path d="M61.2396473,11.6860933 C60.2176892,11.6860933 59.4758749,12.4175614 59.4758749,13.4257175 C59.4758749,14.4336155 60.2341683,15.1937332 61.2396473,15.1937332 C62.2451263,15.1937332 62.9750964,14.4498761 62.9750964,13.4257175 C62.9750964,12.4175614 62.2451263,11.6860933 61.2396473,11.6860933" id="Fill-10" fill="#171E28"></path>
            <polygon id="Fill-12" fill="#171E28" points="59.5907904 34.770287 62.8598204 34.770287 62.8598204 18.0758311 59.5907904 18.0758311"></polygon>
            <path d="M81.2510491,17.818088 C79.5462407,17.818088 78.1298156,18.3820463 76.5990671,19.2544394 C75.6172766,18.3353293 74.0854982,17.818088 72.2931449,17.818088 C71.105624,17.818088 69.8727856,18.057867 68.7344443,18.5028391 L68.7128156,18.0749019 L65.8614263,18.0749019 L65.8614263,34.7711646 L69.1157796,34.7711646 L69.1157796,21.3370845 C69.9835042,20.9723828 71.0978994,20.7452509 72.0691329,20.7452509 C74.5152407,20.7452509 74.7979593,22.114237 74.7979593,23.1440739 L74.7979593,34.7711646 L78.0523126,34.7711646 L78.0523126,23.9754285 C78.0523126,23.1236837 78.0306838,22.2734875 77.9063186,21.6292587 C79.5954204,20.8373942 80.0715102,20.7449928 80.9616359,20.7449928 C82.7243784,20.7449928 83.5812886,21.7593434 83.5812886,23.84586 L83.5812886,34.7711646 L86.8353844,34.7711646 L86.8353844,23.6904811 C86.8353844,20.1781953 84.5914024,17.818088 81.2510491,17.818088" id="Fill-14" fill="#171E28"></path>
            <path d="M92.3176269,23.9633234 C92.3176269,21.1466292 94.3880641,20.726177 95.6221898,20.726177 C97.0602437,20.726177 98.7748365,21.2761976 98.7748365,23.8975067 L98.7748365,25.0561377 L92.3176269,25.0561377 L92.3176269,23.9633234 Z M95.6621,17.8015951 C91.5827647,17.8015951 89.048597,20.187771 89.048597,24.0288819 L89.048597,29.4372032 C89.048597,32.9882046 91.3422737,35.1082748 95.1842078,35.1082748 C97.4459563,35.1082748 99.394088,34.4526894 100.975046,33.1598441 L101.577561,32.6668645 L99.5552737,30.8064474 L99.1144593,31.1063649 C98.0299323,31.8445437 96.753579,32.2185371 95.3201599,32.2185371 C92.5874713,32.2185371 92.2715371,30.7295323 92.2715371,29.6093589 L92.2715371,27.7437797 L101.9401,27.7437797 L101.9401,23.9628071 C101.9401,20.1049195 99.593124,17.8015951 95.6621,17.8015951 Z" id="Fill-15" fill="#171E28"></path>
            <path d="M112.376329,14.7573818 C114.460413,14.7573818 116.097502,15.578154 116.960592,17.052963 L118.449113,16.3060087 C117.383383,14.2272352 115.262221,12.9540058 112.240892,12.9540058 C107.925185,12.9540058 104.907975,15.3445695 104.907975,20.1566694 L104.907975,28.0316952 C104.907975,32.8437952 107.925185,35.2431344 112.240892,35.2431344 C115.262221,35.2431344 117.383383,33.9613876 118.449113,31.8826141 L116.960592,31.1361759 C116.097502,32.6102106 114.460413,33.4314991 112.376329,33.4314991 C109.165233,33.4314991 106.899365,31.6810345 106.899365,28.0316952 L106.899365,20.1569275 C106.899365,16.5073302 109.165233,14.7573818 112.376329,14.7573818" id="Fill-16" fill="#171E28"></path>
            <path d="M128.175559,19.3031953 C126.775613,19.3031953 125.298421,19.5974344 124.068672,20.2145623 L124.069187,13.4638396 L122.146289,13.4638396 L122.146289,34.9061274 L124.069187,34.9061274 L124.069187,21.7162141 C125.162211,21.1806473 126.565762,20.8363359 127.940475,20.8363359 C130.296205,20.8363359 132.068475,21.8974035 132.068475,24.5902075 L132.068475,34.9063855 L133.991116,34.9063855 L133.991116,24.5003872 C133.991116,20.5658425 131.094666,19.3031953 128.175559,19.3031953" id="Fill-17" fill="#171E28"></path>
            <path d="M147.486447,32.7711388 C146.449297,33.3270958 145.074584,33.6654708 143.748279,33.6654708 C141.191968,33.6654708 139.117926,32.7711388 139.117926,29.9183099 C139.117926,26.9206845 141.409028,26.1714072 144.134249,26.1714072 C145.219549,26.1714072 146.377201,26.2922001 147.486447,26.4372548 L147.486447,32.7711388 Z M142.985608,19.3081509 C140.772525,19.3081509 139.274219,19.9366353 138.270028,20.7664413 L139.274734,21.8213143 C140.15662,21.2640667 141.317878,20.9246593 142.801764,20.9246593 C146.844537,20.9246593 147.442417,22.939681 147.486704,25.0303273 C146.249746,24.8674633 144.976483,24.7358301 143.873159,24.7358301 C140.497016,24.7358301 137.322225,25.7628278 137.322225,29.9183099 C137.322225,33.8874406 140.16692,35.1516364 143.466333,35.2432635 C144.974423,35.2432635 146.553836,34.8878536 147.820405,34.1760014 L147.860057,34.967866 L149.409087,34.967866 L149.409087,25.7383079 C149.409087,22.5631065 148.773614,19.3081509 142.985608,19.3081509 Z" id="Fill-18" fill="#171E28"></path>
            <path d="M154.740289,13.1707103 C154.147301,13.1707103 153.649583,13.5537374 153.649583,14.2353913 C153.649583,14.872135 154.105331,15.3284638 154.740289,15.3284638 C155.420307,15.3284638 155.802415,14.8295478 155.802415,14.2353913 C155.802415,13.5986475 155.375505,13.1707103 154.740289,13.1707103" id="Fill-19" fill="#171E28"></path>
            <polygon id="Fill-20" fill="#171E28" points="153.764653 34.9052757 155.687293 34.9052757 155.687293 19.5604481 153.764653 19.5604481"></polygon>
            <path d="M166.016949,19.3026791 C164.532548,19.3026791 162.941805,19.6405379 161.624254,20.3560035 L161.584602,19.5594931 L160.035572,19.5594931 L160.035572,34.9061274 L161.958213,34.9061274 L161.958213,21.7162141 C163.02935,21.1806473 164.411015,20.8580167 165.763841,20.8580167 C168.141458,20.8580167 169.9575,21.9190842 169.9575,24.5902075 L169.9575,34.9061274 L171.880141,34.9061274 L171.880141,24.5003872 C171.880141,20.6634059 169.032099,19.3026791 166.016949,19.3026791" id="Fill-21" fill="#171E28"></path>
        </g>
    </g>
</svg>